Exact Audio Copy V0.99 prebeta 5 from 4. May 2009

EAC extraction logfile from 20. September 2011, 18:05

Arch-Matheos / Sympathetic Resonance

Used drive  : PIONEER DVD-RW  DVR-111D   Adapter: 1  ID: 0

Read mode               : Secure
Utilize accurate stream : Yes
Defeat audio cache      : Yes
Make use of C2 pointers : No

Read offset correction                      : 48
Overread into Lead-In and Lead-Out          : No
Fill up missing offset samples with silence : Yes
Delete leading and trailing silent blocks   : No
Null samples used in CRC calculations       : No
Used interface                              : Native Win32 interface for Win NT & 2000

Used output format              : User Defined Encoder
Selected bitrate                : 32 kBit/s
Quality                         : High
Add ID3 tag                     : No
Command line compressor         : C:Program FilesExact Audio CopyFLACFLAC.EXE
Additional command line options : -6 -V %s


TOC of the extracted CD

     Track |   Start  |  Length  | Start sector | End sector 
    ---------------------------------------------------------
        1  |  0:00.00 | 11:12.25 |         0    |    50424   
        2  | 11:12.25 |  5:27.15 |     50425    |    74964   
        3  | 16:39.40 | 13:56.30 |     74965    |   137694   
        4  | 30:35.70 |  8:11.45 |    137695    |   174564   
        5  | 38:47.40 | 10:27.36 |    174565    |   221625   
        6  | 49:15.01 |  5:22.39 |    221626    |   245814   


Range status and errors

Selected range

     Filename D:MusicFilesFLAC Temp MetalMadnessARCH-MATHEOS [2011] [CD] Sympathetic ResonanceArch-Matheos - Sympathetic Resonance.wav

     Peak level 99.2 %
     Range quality 100.0 %
     Copy CRC D5000E6F
     Copy OK

No errors occurred

 
AccurateRip summary
 
Track  1  not present in database
Track  2  not present in database
Track  3  not present in database
Track  4  not present in database
Track  5  not present in database
Track  6  not present in database
 
None of the tracks are present in the AccurateRip database

End of status report